<?xml version="1.0" standalone="no"?>
<!DOCTYPE svg PUBLIC "-//W3C//DTD SVG 1.1//EN" "http://www.w3.org/Graphics/SVG/1.1/DTD/svg11.dtd" >
<svg xmlns="http://www.w3.org/2000/svg">
<metadata></metadata>
<defs>
<font id="sf_automatonregular" horiz-adv-x="1365" >
<font-face units-per-em="2048" ascent="1638" descent="-410" />
<missing-glyph horiz-adv-x="597" />
<glyph horiz-adv-x="2048" />
<glyph horiz-adv-x="2048" />
<glyph unicode="&#xd;" horiz-adv-x="2048" />
<glyph unicode=" "  horiz-adv-x="597" />
<glyph unicode="&#x09;" horiz-adv-x="597" />
<glyph unicode="&#xa0;" horiz-adv-x="597" />
<glyph unicode="!" horiz-adv-x="478" d="M68 1365h342l-43 -938h-256zM111 0v256h256v-256h-256z" />
<glyph unicode="&#x22;" horiz-adv-x="819" d="M85 1365h256l-68 -426h-119zM478 1365h256l-68 -426h-120z" />
<glyph unicode="#" horiz-adv-x="1104" d="M85 623v179h183l17 193h-200v179h215l17 191h180l-17 -191h192l16 191h179l-15 -191h167v-179h-184l-16 -193h200v-179h-217l-15 -191h-179l15 191h-191l-17 -191h-179l17 191h-168zM447 802h193l15 193h-191z" />
<glyph unicode="$" d="M85 956q0 160 116 285q115 124 277 124h153v171h103v-171h461v-341h-461v-205h153q162 0 277 -124q116 -125 116 -285q0 -162 -116 -287q-116 -123 -277 -123h-153v-169h-103v169h-460v341h460v205h-153q-162 0 -277 124q-116 125 -116 286zM427 922q0 -41 30 -72 q31 -31 72 -31h102v205h-102q-41 0 -72 -31q-30 -30 -30 -71zM734 341h102q41 0 72 31t31 72t-31 71q-31 31 -72 31h-102v-205z" />
<glyph unicode="%" horiz-adv-x="1877" d="M85 838v287q0 98 71 169t170 71h287q98 0 169 -71t71 -169v-287q0 -10 -1.5 -22t-3.5 -26l432 575h341l-469 -624q52 27 113 27h286q99 0 170 -71t71 -170v-286q0 -99 -71 -170t-170 -71h-286q-99 0 -170 71t-71 170v286q0 10 1.5 22t3.5 26l-432 -575h-341l469 625 q-52 -28 -112 -28h-287q-99 0 -170 71t-71 170zM278 857q0 -28 19.5 -47.5t47.5 -19.5h249q27 0 47.5 19.5t20.5 47.5v249q0 27 -20.5 47.5t-47.5 20.5h-249q-28 0 -47.5 -20.5t-19.5 -47.5v-249zM1217 259q0 -27 19.5 -46.5t46.5 -19.5h250q27 0 47.5 19.5t20.5 46.5v250 q0 27 -20.5 47.5t-47.5 20.5h-250q-27 0 -46.5 -20.5t-19.5 -47.5v-250z" />
<glyph unicode="&#x26;" d="M85 386q0 202 176 297q-176 95 -176 297q0 157 117 271t276 114h734v-341h-683q-41 0 -72 -31q-30 -30 -30 -71t30 -72q31 -31 72 -31h751v-819h-802q-159 0 -276 114q-117 115 -117 272zM427 444q0 -41 30 -72q31 -31 72 -31h410v205h-410q-41 0 -72 -31 q-30 -30 -30 -71z" />
<glyph unicode="'" horiz-adv-x="427" d="M85 1365h256l-68 -426h-119z" />
<glyph unicode="(" horiz-adv-x="683" d="M85 683q0 259 57 450q29 97 78 197t121 206h256q-72 -106 -121 -206t-78 -197q-57 -191 -57 -450q0 -261 57 -451q29 -97 79 -196.5t120 -204.5h-256q-70 105 -120 204.5t-79 196.5q-57 190 -57 451z" />
<glyph unicode=")" horiz-adv-x="683" d="M85 -169q141 208 199 401q57 190 57 451q0 259 -57 450q-29 97 -78 197t-121 206h256q72 -106 121 -206t78 -197q57 -191 57 -450q0 -261 -57 -451q-58 -193 -199 -401h-256z" />
<glyph unicode="*" horiz-adv-x="1031" d="M85 829l226 110l-226 109l120 208l191 -145v254h239v-254l191 145l119 -208l-225 -109l225 -110l-119 -208l-191 145v-254h-239v254l-191 -145z" />
<glyph unicode="+" horiz-adv-x="1024" d="M85 546v273h290v290h274v-290h290v-273h-290v-290h-274v290h-290z" />
<glyph unicode="," horiz-adv-x="427" d="M85 256h256l-68 -425h-119z" />
<glyph unicode="-" horiz-adv-x="1024" d="M85 546v273h854v-273h-854z" />
<glyph unicode="." horiz-adv-x="427" d="M85 0v256h256v-256h-256z" />
<glyph unicode="/" horiz-adv-x="860" d="M85 -108l442 1647l248 -64l-442 -1647z" />
<glyph unicode="0" horiz-adv-x="1280" d="M0 427v512q0 175 125 300q126 126 302 126h426q176 0 301 -126q126 -125 126 -300v-512q0 -176 -126 -302q-125 -125 -301 -125h-426q-174 0 -302 125q-125 128 -125 302zM341 461q0 -50 35 -85t85 -35h358q50 0 85 35t35 85v444q0 49 -35 84t-85 35h-358q-50 0 -85 -35 t-35 -84v-444z" />
<glyph unicode="1" horiz-adv-x="478" d="M68 0v1365h342v-1365h-342z" />
<glyph unicode="2" d="M0 0v410q0 160 116 285q115 124 277 124h529q41 0 71 31q31 31 31 72t-31 71q-30 31 -71 31h-837v341h888q161 0 276 -124q116 -125 116 -285q0 -161 -116 -286q-115 -124 -276 -124h-529q-41 0 -72 -31q-31 -30 -31 -71v-103h939v-341h-1280z" />
<glyph unicode="3" horiz-adv-x="1280" d="M0 0v341h836q41 0 72 31t31 72t-31 71q-31 31 -72 31h-665v273h665q41 0 72 31t31 72t-31 71q-31 31 -72 31h-768v341h819q159 0 276 -114t117 -271q0 -202 -176 -297q176 -95 176 -297q0 -157 -117 -272q-117 -114 -276 -114h-887z" />
<glyph unicode="4" d="M0 341l341 1024h359l-244 -716h483v716h341v-716h85v-308h-85v-341h-341v341h-939z" />
<glyph unicode="5" d="M0 546v819h1280v-341h-939v-205h632q161 0 276 -124q116 -125 116 -285q0 -161 -116 -286q-115 -124 -276 -124h-888v341h837q41 0 71 31q31 31 31 72t-31 71q-30 31 -71 31h-922z" />
<glyph unicode="6" d="M0 427v512q0 175 125 300q126 126 302 126h853v-341h-836q-41 0 -72 -31q-31 -30 -31 -71v-103h632q161 0 276 -124q116 -125 116 -285q0 -162 -116 -287q-116 -123 -276 -123h-546q-174 0 -302 125q-125 128 -125 302zM341 444q0 -21 8 -40t22 -33t33 -22t40 -8h478 q41 0 71 31q31 31 31 72t-31 71q-30 31 -71 31h-581v-102z" />
<glyph unicode="7" horiz-adv-x="1280" d="M0 0l717 1024h-632v341h1280l-955 -1365h-410z" />
<glyph unicode="8" d="M0 386q0 202 176 297q-176 95 -176 297q0 157 117 271t276 114h580q159 0 275 -114q117 -114 117 -271q0 -203 -175 -297q175 -94 175 -297q0 -157 -117 -272q-116 -114 -275 -114h-580q-159 0 -276 114q-117 115 -117 272zM341 444q0 -41 31 -72t72 -31h478q41 0 71 31 q31 31 31 72t-31 71q-30 31 -71 31h-478q-41 0 -72 -31q-31 -30 -31 -71zM341 922q0 -41 31 -72t72 -31h478q41 0 71 31q31 31 31 72t-31 71q-30 31 -71 31h-478q-41 0 -72 -31q-31 -30 -31 -71z" />
<glyph unicode="9" d="M0 956q0 160 116 285q115 124 277 124h546q175 0 300 -126q126 -125 126 -300v-512q0 -176 -126 -302q-125 -125 -300 -125h-854v341h837q41 0 71 31q31 31 31 72v102h-631q-162 0 -277 124q-116 125 -116 286zM341 922q0 -41 31 -72t72 -31h580v103q0 21 -8 39.5 t-22 32.5t-32.5 22t-39.5 8h-478q-41 0 -72 -31q-31 -30 -31 -71z" />
<glyph unicode=":" horiz-adv-x="427" d="M85 0v256h256v-256h-256zM85 768v256h256v-256h-256z" />
<glyph unicode=";" horiz-adv-x="427" d="M85 256h256l-68 -425h-119zM85 768v256h256v-256h-256z" />
<glyph unicode="&#x3c;" horiz-adv-x="853" d="M85 683l342 426h341l-358 -426l358 -427h-341z" />
<glyph unicode="=" horiz-adv-x="1024" d="M85 324v273h854v-273h-854zM85 768v273h854v-273h-854z" />
<glyph unicode="&#x3e;" horiz-adv-x="853" d="M85 256l359 427l-359 426h342l341 -426l-341 -427h-342z" />
<glyph unicode="?" horiz-adv-x="1280" d="M85 1024v341h717q161 0 277 -125t116 -284q0 -161 -116 -286q-115 -124 -277 -124h-273q-49 0 -75.5 -35t-26.5 -84h-256q0 160 116 276t276 116h188q41 0 71 31q31 31 31 72t-31 71q-30 31 -71 31h-666zM171 0v256h256v-256h-256z" />
<glyph unicode="@" horiz-adv-x="1536" d="M85 213v939q0 87 63 150q64 63 151 63h938q87 0 150 -63q64 -63 64 -150v-597q0 -87 -64 -151q-63 -63 -150 -63h-643q-80 0 -129 55q-50 56 -50 135q0 89 64 153q64 67 151 67h315q2 18 3 31.5t1 23.5q0 47 -46 47h-418l15 171h427q85 0 139 -57q55 -55 55 -141 q0 -16 -27 -314h126q60 0 60 60v563q0 60 -60 60h-904q-60 0 -60 -60v-905q0 -59 60 -59h964v-171h-981q-87 0 -151 63q-63 63 -63 150zM587 560q0 -48 46 -48h290l11 102h-291q-22 0 -39 -16t-17 -38z" />
<glyph unicode="A" d="M0 410q0 160 116 285q115 124 277 124h631v103q0 41 -31 71q-30 31 -71 31h-837v341h854q175 0 300 -126q126 -125 126 -300v-939h-972q-162 0 -277 123q-116 125 -116 287zM341 444q0 -41 31 -72t72 -31h580v205h-580q-41 0 -72 -31q-31 -30 -31 -71z" />
<glyph unicode="B" d="M0 0v1365h973q159 0 275 -114q117 -114 117 -271q0 -203 -175 -297q175 -94 175 -297q0 -157 -117 -272q-116 -114 -275 -114h-973zM341 341h581q41 0 71 31q31 31 31 72t-31 71q-30 31 -71 31h-581v-205zM341 819h581q41 0 71 31q31 31 31 72t-31 71q-30 31 -71 31h-581 v-205z" />
<glyph unicode="C" horiz-adv-x="1195" d="M0 427v512q0 175 125 300q126 126 302 126h682v-341h-648q-50 0 -85 -35t-35 -84v-444q0 -50 35 -85t85 -35h734v-341h-768q-174 0 -302 125q-125 128 -125 302z" />
<glyph unicode="D" d="M0 0v1365h939q175 0 300 -126q126 -125 126 -300v-512q0 -176 -126 -302q-125 -125 -300 -125h-939zM341 341h564q49 0 84 35t35 85v444q0 49 -35 84t-84 35h-564v-683z" />
<glyph unicode="E" horiz-adv-x="1195" d="M0 0v1365h1109v-341h-768v-205h683v-273h-683v-205h854v-341h-1195z" />
<glyph unicode="F" horiz-adv-x="1195" d="M0 0v1365h1195v-341h-854v-205h683v-273h-683v-546h-341z" />
<glyph unicode="G" d="M0 427v512q0 175 125 300q126 126 302 126h853v-341h-819q-50 0 -85 -35t-35 -84v-444q0 -50 35 -85t85 -35h563v205h-341v273h682v-819h-938q-174 0 -302 125q-125 128 -125 302z" />
<glyph unicode="H" d="M0 0v1365h341v-546h683v546h341v-1365h-341v546h-683v-546h-341z" />
<glyph unicode="I" horiz-adv-x="478" d="M68 0v1365h342v-1365h-342z" />
<glyph unicode="J" horiz-adv-x="1024" d="M0 0v341h563q50 0 85 35t35 85v904h341v-938q0 -176 -126 -302q-125 -125 -301 -125h-597z" />
<glyph unicode="K" horiz-adv-x="1323" d="M0 0v1365h341v-495l564 495h460l-768 -682l768 -683h-460l-564 495v-495h-341z" />
<glyph unicode="L" horiz-adv-x="1109" d="M0 0v1365h341v-1024h768v-341h-1109z" />
<glyph unicode="M" horiz-adv-x="1707" d="M0 0v1365h1280q176 0 301 -126q126 -125 126 -300v-939h-342v905q0 49 -35 84t-84 35h-222v-1024h-341v1024h-342v-1024h-341z" />
<glyph unicode="N" d="M0 0v1365h939q175 0 300 -126q126 -125 126 -300v-939h-341v905q0 49 -35 84t-84 35h-564v-1024h-341z" />
<glyph unicode="O" d="M0 427v512q0 175 125 300q126 126 302 126h512q175 0 300 -126q126 -125 126 -300v-512q0 -176 -126 -302q-125 -125 -300 -125h-512q-174 0 -302 125q-125 128 -125 302zM341 461q0 -50 35 -85t85 -35h444q49 0 84 35t35 85v444q0 49 -35 84t-84 35h-444q-50 0 -85 -35 t-35 -84v-444z" />
<glyph unicode="P" d="M0 0v1365h939q175 0 300 -126q126 -125 126 -300v-171q0 -176 -126 -302q-125 -125 -300 -125h-598v-341h-341zM341 683h564q49 0 84 35t35 84v103q0 49 -35 84t-84 35h-564v-341z" />
<glyph unicode="Q" d="M0 427v512q0 175 125 300q126 126 302 126h426q176 0 301 -126q126 -125 126 -300v-598h85v-341h-938q-174 0 -302 125q-125 128 -125 302zM341 461q0 -50 35 -85t85 -35h478v564q0 49 -35 84t-85 35h-358q-50 0 -85 -35t-35 -84v-444z" />
<glyph unicode="R" d="M0 0v1365h939q175 0 300 -126q126 -125 126 -300v-171q0 -176 -126 -302q-125 -125 -300 -125h-137l478 -341h-495l-444 341v-341h-341zM341 683h564q49 0 84 35t35 84v103q0 49 -35 84t-84 35h-564v-341z" />
<glyph unicode="S" d="M0 956q0 160 116 285q115 124 277 124h887v-341h-836q-41 0 -72 -31q-31 -30 -31 -71t31 -72t72 -31h529q161 0 276 -124q116 -125 116 -285q0 -162 -116 -287q-116 -123 -276 -123h-888v341h837q41 0 71 31q31 31 31 72t-31 71q-30 31 -71 31h-529q-162 0 -277 124 q-116 125 -116 286z" />
<glyph unicode="T" horiz-adv-x="1195" d="M0 1024v341h1195v-341h-427v-1024h-341v1024h-427z" />
<glyph unicode="U" d="M0 427v938h341v-904q0 -50 35 -85t85 -35h444q49 0 84 35t35 85v904h341v-938q0 -176 -126 -302q-125 -125 -300 -125h-512q-174 0 -302 125q-125 128 -125 302z" />
<glyph unicode="V" horiz-adv-x="1280" d="M-41 1365h374l307 -984l307 984h376l-495 -1365h-376z" />
<glyph unicode="W" horiz-adv-x="1707" d="M0 427v938h341v-904q0 -50 35 -85t85 -35h222v1024h341v-1024h341v1024h342v-1365h-1280q-174 0 -302 125q-125 128 -125 302z" />
<glyph unicode="X" horiz-adv-x="1280" d="M-41 0l464 683l-464 682h434l247 -397l247 397h436l-465 -682l465 -683h-436l-247 398l-247 -398h-434z" />
<glyph unicode="Y" horiz-adv-x="1195" d="M-84 1365h434l247 -512l248 512h435l-512 -853v-512h-341v512z" />
<glyph unicode="Z" d="M0 0v341l819 683h-751v341h1297v-341l-819 -683h751v-341h-1297z" />
<glyph unicode="[" horiz-adv-x="683" d="M85 -169v1705h512v-256h-256v-1195h256v-254h-512z" />
<glyph unicode="\" horiz-adv-x="860" d="M85 1475l248 64l442 -1647l-248 -64z" />
<glyph unicode="]" horiz-adv-x="683" d="M85 85h256v1195h-256v256h512v-1705h-512v254z" />
<glyph unicode="^" horiz-adv-x="1109" d="M85 597l342 768h256l341 -768h-256l-213 514l-214 -514h-256z" />
<glyph unicode="_" horiz-adv-x="853" d="M0 0v137h853v-137h-853z" />
<glyph unicode="`" horiz-adv-x="597" d="M85 1792h256l171 -341h-171z" />
<glyph unicode="a" d="M0 410q0 160 116 285q115 124 277 124h631v103q0 41 -31 71q-30 31 -71 31h-837v341h854q175 0 300 -126q126 -125 126 -300v-939h-972q-162 0 -277 123q-116 125 -116 287zM341 444q0 -41 31 -72t72 -31h580v205h-580q-41 0 -72 -31q-31 -30 -31 -71z" />
<glyph unicode="b" d="M0 0v1365h973q159 0 275 -114q117 -114 117 -271q0 -203 -175 -297q175 -94 175 -297q0 -157 -117 -272q-116 -114 -275 -114h-973zM341 341h581q41 0 71 31q31 31 31 72t-31 71q-30 31 -71 31h-581v-205zM341 819h581q41 0 71 31q31 31 31 72t-31 71q-30 31 -71 31h-581 v-205z" />
<glyph unicode="c" horiz-adv-x="1195" d="M0 427v512q0 175 125 300q126 126 302 126h682v-341h-648q-50 0 -85 -35t-35 -84v-444q0 -50 35 -85t85 -35h734v-341h-768q-174 0 -302 125q-125 128 -125 302z" />
<glyph unicode="d" d="M0 0v1365h939q175 0 300 -126q126 -125 126 -300v-512q0 -176 -126 -302q-125 -125 -300 -125h-939zM341 341h564q49 0 84 35t35 85v444q0 49 -35 84t-84 35h-564v-683z" />
<glyph unicode="e" d="M0 427v512q0 175 125 300q126 126 302 126h546q161 0 276 -124q116 -125 116 -285q0 -161 -116 -286q-115 -124 -276 -124h-632v-102q0 -41 31 -72t72 -31h836v-341h-853q-174 0 -302 125q-125 128 -125 302zM341 819h581q45 0 72.5 29t27.5 74t-27.5 73.5t-72.5 28.5 h-478q-41 0 -72 -31q-31 -30 -31 -71v-103z" />
<glyph unicode="f" horiz-adv-x="1195" d="M0 0v1365h1195v-341h-854v-205h683v-273h-683v-546h-341z" />
<glyph unicode="g" d="M0 427v512q0 175 125 300q126 126 302 126h853v-341h-819q-50 0 -85 -35t-35 -84v-444q0 -50 35 -85t85 -35h563v205h-341v273h682v-819h-938q-174 0 -302 125q-125 128 -125 302z" />
<glyph unicode="h" d="M0 0v1365h341v-546h683v546h341v-1365h-341v546h-683v-546h-341z" />
<glyph unicode="i" horiz-adv-x="478" d="M68 0v1365h342v-1365h-342z" />
<glyph unicode="j" horiz-adv-x="1024" d="M0 0v341h563q50 0 85 35t35 85v904h341v-938q0 -176 -126 -302q-125 -125 -301 -125h-597z" />
<glyph unicode="k" horiz-adv-x="1323" d="M0 0v1365h341v-495l564 495h460l-768 -682l768 -683h-460l-564 495v-495h-341z" />
<glyph unicode="l" horiz-adv-x="1109" d="M0 0v1365h341v-1024h768v-341h-1109z" />
<glyph unicode="m" horiz-adv-x="1707" d="M0 0v1365h1280q176 0 301 -126q126 -125 126 -300v-939h-342v905q0 49 -35 84t-84 35h-222v-1024h-341v1024h-342v-1024h-341z" />
<glyph unicode="n" d="M0 0v1365h939q175 0 300 -126q126 -125 126 -300v-939h-341v905q0 49 -35 84t-84 35h-564v-1024h-341z" />
<glyph unicode="o" d="M0 427v512q0 175 125 300q126 126 302 126h512q175 0 300 -126q126 -125 126 -300v-512q0 -176 -126 -302q-125 -125 -300 -125h-512q-174 0 -302 125q-125 128 -125 302zM341 461q0 -50 35 -85t85 -35h444q49 0 84 35t35 85v444q0 49 -35 84t-84 35h-444q-50 0 -85 -35 t-35 -84v-444z" />
<glyph unicode="p" d="M0 0v1365h939q175 0 300 -126q126 -125 126 -300v-171q0 -176 -126 -302q-125 -125 -300 -125h-598v-341h-341zM341 683h564q49 0 84 35t35 84v103q0 49 -35 84t-84 35h-564v-341z" />
<glyph unicode="q" d="M0 427v512q0 175 125 300q126 126 302 126h426q176 0 301 -126q126 -125 126 -300v-598h85v-341h-938q-174 0 -302 125q-125 128 -125 302zM341 461q0 -50 35 -85t85 -35h478v564q0 49 -35 84t-85 35h-358q-50 0 -85 -35t-35 -84v-444z" />
<glyph unicode="r" d="M0 0v1365h939q175 0 300 -126q126 -125 126 -300v-171q0 -176 -126 -302q-125 -125 -300 -125h-137l478 -341h-495l-444 341v-341h-341zM341 683h564q49 0 84 35t35 84v103q0 49 -35 84t-84 35h-564v-341z" />
<glyph unicode="s" d="M0 956q0 160 116 285q115 124 277 124h887v-341h-836q-41 0 -72 -31q-31 -30 -31 -71t31 -72t72 -31h529q161 0 276 -124q116 -125 116 -285q0 -162 -116 -287q-116 -123 -276 -123h-888v341h837q41 0 71 31q31 31 31 72t-31 71q-30 31 -71 31h-529q-162 0 -277 124 q-116 125 -116 286z" />
<glyph unicode="t" horiz-adv-x="1195" d="M0 1024v341h1195v-341h-427v-1024h-341v1024h-427z" />
<glyph unicode="u" d="M0 427v938h341v-904q0 -50 35 -85t85 -35h444q49 0 84 35t35 85v904h341v-938q0 -176 -126 -302q-125 -125 -300 -125h-512q-174 0 -302 125q-125 128 -125 302z" />
<glyph unicode="v" horiz-adv-x="1280" d="M-41 1365h374l307 -984l307 984h376l-495 -1365h-376z" />
<glyph unicode="w" horiz-adv-x="1707" d="M0 427v938h341v-904q0 -50 35 -85t85 -35h222v1024h341v-1024h341v1024h342v-1365h-1280q-174 0 -302 125q-125 128 -125 302z" />
<glyph unicode="x" horiz-adv-x="1280" d="M-41 0l464 683l-464 682h434l247 -397l247 397h436l-465 -682l465 -683h-436l-247 398l-247 -398h-434z" />
<glyph unicode="y" horiz-adv-x="1195" d="M-84 1365h434l247 -512l248 512h435l-512 -853v-512h-341v512z" />
<glyph unicode="z" d="M0 0v341l1229 1024h136v-341l-1228 -1024h-137zM68 1024v341h990l-409 -341h-581zM307 0l410 341h580v-341h-990z" />
<glyph unicode="{" horiz-adv-x="939" d="M85 555v256h137q49 0 84 35t35 84v265q0 141 100 241t242 100h170v-256h-136q-50 0 -85 -35t-35 -84v-65q1 -22 1.5 -38t0.5 -27q0 -123 -27 -196q-35 -91 -123 -152q114 -79 140 -215q4 -23 6 -88.5t2 -174.5q0 -50 35 -85t85 -35h136v-254h-170q-142 0 -242 99 t-100 241v264q0 50 -35 85t-84 35h-137z" />
<glyph unicode="|" horiz-adv-x="427" d="M85 -169v1705h256v-1705h-256z" />
<glyph unicode="}" horiz-adv-x="939" d="M85 85h137q49 0 84 35t35 85v27v17q0 10 -1 21v65q0 122 27 196q34 90 123 152q-114 77 -140 215q-9 46 -9 263q0 49 -35 84t-84 35h-137v256h171q142 0 241 -100q100 -100 100 -241v-265q0 -49 35 -84t85 -35h136v-256h-136q-50 0 -85 -35t-35 -85v-264 q0 -142 -100 -241q-99 -99 -241 -99h-171v254z" />
<glyph unicode="~" horiz-adv-x="1143" d="M85 836v273q181 171 325 171q69 0 161 -86q91 -85 163 -85q142 0 324 171v-273q-182 -171 -324 -171q-72 0 -163 85q-92 86 -161 86q-144 0 -325 -171z" />
<glyph unicode="&#xa1;" horiz-adv-x="478" d="M68 -169l43 937h256l43 -937h-342zM111 939v256h256v-256h-256z" />
<glyph unicode="&#xa2;" horiz-adv-x="1109" d="M85 768v171q0 175 125 300q126 126 302 126h205l42 171h137l-43 -171h171v-341h-256l-85 -341h341v-342h-427l-42 -170h-137l43 174q-162 20 -269 140q-107 122 -107 283zM427 802q0 -49 35 -84t84 -35l85 341h-85q-49 0 -84 -35t-35 -84v-103z" />
<glyph unicode="&#xa3;" d="M85 597v137h171v205q0 175 125 300q126 126 302 126h512v-341h-478q-50 0 -85 -35t-35 -84v-171h342v-137h-342v-256h683v-341h-1024v597h-171z" />
<glyph unicode="&#xa4;" horiz-adv-x="1082" d="M85 346l130 130q-15 39 -15 79v256q0 39 15 78l-130 130l120 119l130 -129q39 15 78 15h256q38 0 79 -15l129 129l120 -119l-130 -130q15 -39 15 -78v-256q0 -40 -15 -79l130 -130l-120 -119l-129 130q-38 -16 -79 -16h-256q-42 0 -78 16l-130 -130zM370 572 q0 -60 60 -60h222q60 0 60 60v222q0 59 -60 59h-222q-60 0 -60 -59v-222z" />
<glyph unicode="&#xa5;" d="M0 1365h435l248 -512l247 512h435l-471 -785h386v-136h-427v-171h427v-136h-427v-137h-341v137h-427v136h427v171h-427v136h386z" />
<glyph unicode="&#xa6;" horiz-adv-x="427" d="M85 -169v724h256v-724h-256zM85 811v725h256v-725h-256z" />
<glyph unicode="&#xa8;" horiz-adv-x="836" d="M85 1451v222h222v-222h-222zM529 1451v222h222v-222h-222z" />
<glyph unicode="&#xa9;" horiz-adv-x="1536" d="M85 213v939q0 89 62 151q65 62 152 62h938q89 0 151 -62q63 -62 63 -151v-939q0 -88 -63 -151q-62 -62 -151 -62h-938q-87 0 -152 62q-62 65 -62 151zM256 230q0 -59 60 -59h904q60 0 60 59v905q0 60 -60 60h-904q-60 0 -60 -60v-905zM469 555v256q0 88 62 150 q63 63 152 63h341v-171h-324q-60 0 -60 -59v-222q0 -60 60 -60h367v-171h-384q-87 0 -152 62q-62 65 -62 152z" />
<glyph unicode="&#xab;" horiz-adv-x="1075" d="M85 427l222 341h239l-239 -341l239 -342h-239zM529 427l222 341h239l-239 -341l239 -342h-239z" />
<glyph unicode="&#xad;" horiz-adv-x="1024" d="M85 546v273h854v-273h-854z" />
<glyph unicode="&#xae;" horiz-adv-x="1536" d="M85 213v939q0 89 62 151q65 62 152 62h938q89 0 151 -62q63 -62 63 -151v-939q0 -88 -63 -151q-62 -62 -151 -62h-938q-87 0 -152 62q-62 65 -62 151zM256 230q0 -59 60 -59h904q60 0 60 59v905q0 60 -60 60h-904q-60 0 -60 -60v-905zM427 341v683h469q87 0 150 -63 t63 -150v-86q0 -87 -63 -150t-150 -63h-68l239 -171h-248l-222 171v-171h-170zM597 683h282q60 0 60 59v52q0 59 -60 59h-282v-170z" />
<glyph unicode="&#xaf;" horiz-adv-x="853" d="M0 1229v136h853v-136h-853z" />
<glyph unicode="&#xb0;" horiz-adv-x="563" d="M85 1106v128q0 55 39 93q41 38 94 38h128q55 0 93 -38q39 -38 39 -93v-128q0 -55 -39 -94q-38 -39 -93 -39h-128q-54 0 -94 39q-39 39 -39 94zM196 1114q0 -30 31 -30h111q29 0 29 30v111q0 29 -29 29h-111q-31 0 -31 -29v-111z" />
<glyph unicode="&#xb1;" horiz-adv-x="1024" d="M85 0v273h854v-273h-854zM85 717v273h290v290h274v-290h290v-273h-290v-290h-274v290h-290z" />
<glyph unicode="&#xb4;" horiz-adv-x="597" d="M85 1451l171 341h256l-256 -341h-171z" />
<glyph unicode="&#xb6;" horiz-adv-x="1536" d="M85 768v171q0 175 125 300q126 126 302 126h939v-341h-171v-1364h-256v1364h-171v-1364h-256v681h-85q-174 0 -302 125q-125 128 -125 302z" />
<glyph unicode="&#xb7;" horiz-adv-x="427" d="M85 555v256h256v-256h-256z" />
<glyph unicode="&#xbb;" horiz-adv-x="1075" d="M85 85l239 342l-239 341h239l222 -341l-222 -342h-239zM529 85l239 342l-239 341h239l222 -341l-222 -342h-239z" />
<glyph unicode="&#xbf;" horiz-adv-x="1280" d="M85 239q0 160 116 285t277 125h273q49 0 75.5 35t26.5 84h256q0 -158 -116 -277q-116 -116 -276 -116h-188q-41 0 -72 -31q-30 -30 -30 -71t30 -72q31 -30 72 -30h666v-340h-717q-162 0 -277 124q-116 125 -116 284zM853 939v256h256v-256h-256z" />
<glyph unicode="&#xc0;" d="M0 410q0 160 116 285q115 124 277 124h631v103q0 41 -31 71q-30 31 -71 31h-837v341h854q175 0 300 -126q126 -125 126 -300v-939h-972q-162 0 -277 123q-116 125 -116 287zM341 444q0 -41 31 -72t72 -31h580v205h-580q-41 0 -72 -31q-31 -30 -31 -71zM469 1792h256 l171 -341h-171z" />
<glyph unicode="&#xc1;" d="M0 410q0 160 116 285q115 124 277 124h631v103q0 41 -31 71q-30 31 -71 31h-837v341h854q175 0 300 -126q126 -125 126 -300v-939h-972q-162 0 -277 123q-116 125 -116 287zM341 444q0 -41 31 -72t72 -31h580v205h-580q-41 0 -72 -31q-31 -30 -31 -71zM469 1451l171 341 h256l-256 -341h-171z" />
<glyph unicode="&#xc2;" d="M0 410q0 160 116 285q115 124 277 124h631v103q0 41 -31 71q-30 31 -71 31h-837v341h854q175 0 300 -126q126 -125 126 -300v-939h-972q-162 0 -277 123q-116 125 -116 287zM298 1451l256 341h256l256 -341h-256l-128 206l-128 -206h-256zM341 444q0 -41 31 -72t72 -31 h580v205h-580q-41 0 -72 -31q-31 -30 -31 -71z" />
<glyph unicode="&#xc3;" d="M0 410q0 160 116 285q115 124 277 124h631v103q0 41 -31 71q-30 31 -71 31h-837v341h854q175 0 300 -126q126 -125 126 -300v-939h-972q-162 0 -277 123q-116 125 -116 287zM298 1451v204q146 137 256 137q57 0 128 -69q74 -68 128 -68q113 0 256 137v-205 q-139 -136 -256 -136q-54 0 -128 68q-71 68 -128 68q-114 0 -256 -136zM341 444q0 -41 31 -72t72 -31h580v205h-580q-41 0 -72 -31q-31 -30 -31 -71z" />
<glyph unicode="&#xc4;" d="M0 410q0 160 116 285q115 124 277 124h631v103q0 41 -31 71q-30 31 -71 31h-837v341h854q175 0 300 -126q126 -125 126 -300v-939h-972q-162 0 -277 123q-116 125 -116 287zM341 444q0 -41 31 -72t72 -31h580v205h-580q-41 0 -72 -31q-31 -30 -31 -71zM350 1451v222h222 v-222h-222zM794 1451v222h222v-222h-222z" />
<glyph unicode="&#xc5;" d="M0 410q0 160 116 285q115 124 277 124h631v103q0 41 -31 71q-30 31 -71 31h-837v341h854q175 0 300 -126q126 -125 126 -300v-939h-972q-162 0 -277 123q-116 125 -116 287zM341 444q0 -41 31 -72t72 -31h580v205h-580q-41 0 -72 -31q-31 -30 -31 -71zM486 1584v128 q0 54 39 92q40 39 94 39h128q55 0 93 -39q39 -38 39 -92v-128q0 -55 -39 -94q-38 -39 -93 -39h-128q-54 0 -94 39q-39 39 -39 94zM597 1592q0 -30 31 -30h111q29 0 29 30v111q0 29 -29 29h-111q-31 0 -31 -29v-111z" />
<glyph unicode="&#xc6;" horiz-adv-x="2048" d="M0 410q0 160 116 285q115 124 277 124h460v205h-768v341h1570q162 0 277 -124q116 -125 116 -285v-410h-853v-205h768v-341h-1570q-162 0 -277 123q-116 125 -116 287zM341 444q0 -41 31 -72t72 -31h409v205h-409q-41 0 -72 -31q-31 -30 -31 -71zM1195 819h512v103 q0 41 -31 71q-31 31 -72 31h-409v-205z" />
<glyph unicode="&#xc8;" horiz-adv-x="1195" d="M0 0v1365h1109v-341h-768v-205h683v-273h-683v-205h854v-341h-1195zM384 1792h256l171 -341h-171z" />
<glyph unicode="&#xc9;" horiz-adv-x="1195" d="M0 0v1365h1109v-341h-768v-205h683v-273h-683v-205h854v-341h-1195zM384 1451l171 341h256l-256 -341h-171z" />
<glyph unicode="&#xca;" horiz-adv-x="1195" d="M0 0v1365h1109v-341h-768v-205h683v-273h-683v-205h854v-341h-1195zM213 1451l256 341h256l256 -341h-256l-128 206l-128 -206h-256z" />
<glyph unicode="&#xcb;" horiz-adv-x="1195" d="M0 0v1365h1109v-341h-768v-205h683v-273h-683v-205h854v-341h-1195zM264 1451v222h222v-222h-222zM708 1451v222h222v-222h-222z" />
<glyph unicode="&#xcc;" horiz-adv-x="478" d="M26 1792h256l171 -341h-171zM68 0v1365h342v-1365h-342z" />
<glyph unicode="&#xcd;" horiz-adv-x="478" d="M26 1451l171 341h256l-256 -341h-171zM68 0v1365h342v-1365h-342z" />
<glyph unicode="&#xce;" horiz-adv-x="478" d="M-144 1451l256 341h256l256 -341h-256l-128 206l-128 -206h-256zM68 0v1365h342v-1365h-342z" />
<glyph unicode="&#xcf;" horiz-adv-x="478" d="M-93 1451v222h222v-222h-222zM68 0v1365h342v-1365h-342zM351 1451v222h222v-222h-222z" />
<glyph unicode="&#xd1;" d="M0 0v1365h939q175 0 300 -126q126 -125 126 -300v-939h-341v905q0 49 -35 84t-84 35h-564v-1024h-341zM298 1451v204q146 137 256 137q57 0 128 -69q74 -68 128 -68q113 0 256 137v-205q-139 -136 -256 -136q-54 0 -128 68q-71 68 -128 68q-114 0 -256 -136z" />
<glyph unicode="&#xd2;" d="M0 427v512q0 175 125 300q126 126 302 126h512q175 0 300 -126q126 -125 126 -300v-512q0 -176 -126 -302q-125 -125 -300 -125h-512q-174 0 -302 125q-125 128 -125 302zM341 461q0 -50 35 -85t85 -35h444q49 0 84 35t35 85v444q0 49 -35 84t-84 35h-444q-50 0 -85 -35 t-35 -84v-444zM469 1792h256l171 -341h-171z" />
<glyph unicode="&#xd3;" d="M0 427v512q0 175 125 300q126 126 302 126h512q175 0 300 -126q126 -125 126 -300v-512q0 -176 -126 -302q-125 -125 -300 -125h-512q-174 0 -302 125q-125 128 -125 302zM341 461q0 -50 35 -85t85 -35h444q49 0 84 35t35 85v444q0 49 -35 84t-84 35h-444q-50 0 -85 -35 t-35 -84v-444zM469 1451l171 341h256l-256 -341h-171z" />
<glyph unicode="&#xd4;" d="M0 427v512q0 175 125 300q126 126 302 126h512q175 0 300 -126q126 -125 126 -300v-512q0 -176 -126 -302q-125 -125 -300 -125h-512q-174 0 -302 125q-125 128 -125 302zM298 1451l256 341h256l256 -341h-256l-128 206l-128 -206h-256zM341 461q0 -50 35 -85t85 -35h444 q49 0 84 35t35 85v444q0 49 -35 84t-84 35h-444q-50 0 -85 -35t-35 -84v-444z" />
<glyph unicode="&#xd5;" d="M0 427v512q0 175 125 300q126 126 302 126h512q175 0 300 -126q126 -125 126 -300v-512q0 -176 -126 -302q-125 -125 -300 -125h-512q-174 0 -302 125q-125 128 -125 302zM298 1451v204q146 137 256 137q57 0 128 -69q74 -68 128 -68q113 0 256 137v-205 q-139 -136 -256 -136q-54 0 -128 68q-71 68 -128 68q-114 0 -256 -136zM341 461q0 -50 35 -85t85 -35h444q49 0 84 35t35 85v444q0 49 -35 84t-84 35h-444q-50 0 -85 -35t-35 -84v-444z" />
<glyph unicode="&#xd6;" d="M0 427v512q0 175 125 300q126 126 302 126h512q175 0 300 -126q126 -125 126 -300v-512q0 -176 -126 -302q-125 -125 -300 -125h-512q-174 0 -302 125q-125 128 -125 302zM341 461q0 -50 35 -85t85 -35h444q49 0 84 35t35 85v444q0 49 -35 84t-84 35h-444q-50 0 -85 -35 t-35 -84v-444zM350 1451v222h222v-222h-222zM794 1451v222h222v-222h-222z" />
<glyph unicode="&#xd7;" horiz-adv-x="966" d="M85 478l222 205l-222 204l193 193l205 -222l205 222l193 -193l-222 -204l222 -205l-193 -193l-205 222l-205 -222z" />
<glyph unicode="&#xd8;" d="M-84 85l135 137q-51 94 -51 205v512q0 175 125 300q126 126 302 126h512q111 0 204 -51l137 137l171 -171l-137 -137q51 -93 51 -204v-512q0 -176 -126 -302q-125 -125 -300 -125h-512q-111 0 -205 51l-137 -135zM341 512l512 512h-392q-50 0 -85 -35t-35 -84v-393z M512 341h393q49 0 84 35t35 85v392z" />
<glyph unicode="&#xd9;" d="M0 427v938h341v-904q0 -50 35 -85t85 -35h444q49 0 84 35t35 85v904h341v-938q0 -176 -126 -302q-125 -125 -300 -125h-512q-174 0 -302 125q-125 128 -125 302zM469 1792h256l171 -341h-171z" />
<glyph unicode="&#xda;" d="M0 427v938h341v-904q0 -50 35 -85t85 -35h444q49 0 84 35t35 85v904h341v-938q0 -176 -126 -302q-125 -125 -300 -125h-512q-174 0 -302 125q-125 128 -125 302zM469 1451l171 341h256l-256 -341h-171z" />
<glyph unicode="&#xdb;" d="M0 427v938h341v-904q0 -50 35 -85t85 -35h444q49 0 84 35t35 85v904h341v-938q0 -176 -126 -302q-125 -125 -300 -125h-512q-174 0 -302 125q-125 128 -125 302zM298 1451l256 341h256l256 -341h-256l-128 206l-128 -206h-256z" />
<glyph unicode="&#xdc;" d="M0 427v938h341v-904q0 -50 35 -85t85 -35h444q49 0 84 35t35 85v904h341v-938q0 -176 -126 -302q-125 -125 -300 -125h-512q-174 0 -302 125q-125 128 -125 302zM350 1451v222h222v-222h-222zM794 1451v222h222v-222h-222z" />
<glyph unicode="&#xdd;" horiz-adv-x="1195" d="M-84 1365h434l247 -512l248 512h435l-512 -853v-512h-341v512zM384 1451l171 341h256l-256 -341h-171z" />
<glyph unicode="&#xde;" d="M0 0v1365h341v-222h598q175 0 300 -125q126 -125 126 -301v-68q0 -176 -126 -302q-125 -125 -300 -125h-598v-222h-341zM341 512h564q49 0 84 35t35 84v103q0 49 -35 84t-84 35h-564v-341z" />
<glyph unicode="&#xdf;" d="M0 -340v1279q0 175 125 300q126 126 302 126h546q159 0 275 -114q117 -114 117 -271q0 -203 -175 -297q175 -94 175 -297q0 -157 -117 -272q-116 -114 -275 -114h-461v341h410q41 0 71 31q31 31 31 72t-31 71q-30 31 -71 31h-410v273h410q41 0 71 31q31 31 31 72t-31 71 q-30 31 -71 31h-461q-50 0 -85 -35t-35 -84v-1245h-341z" />
<glyph unicode="&#xe0;" d="M0 410q0 160 116 285q115 124 277 124h631v103q0 41 -31 71q-30 31 -71 31h-837v341h854q175 0 300 -126q126 -125 126 -300v-939h-972q-162 0 -277 123q-116 125 -116 287zM341 444q0 -41 31 -72t72 -31h580v205h-580q-41 0 -72 -31q-31 -30 -31 -71zM469 1792h256 l171 -341h-171z" />
<glyph unicode="&#xe1;" d="M0 410q0 160 116 285q115 124 277 124h631v103q0 41 -31 71q-30 31 -71 31h-837v341h854q175 0 300 -126q126 -125 126 -300v-939h-972q-162 0 -277 123q-116 125 -116 287zM341 444q0 -41 31 -72t72 -31h580v205h-580q-41 0 -72 -31q-31 -30 -31 -71zM469 1451l171 341 h256l-256 -341h-171z" />
<glyph unicode="&#xe2;" d="M0 410q0 160 116 285q115 124 277 124h631v103q0 41 -31 71q-30 31 -71 31h-837v341h854q175 0 300 -126q126 -125 126 -300v-939h-972q-162 0 -277 123q-116 125 -116 287zM298 1451l256 341h256l256 -341h-256l-128 206l-128 -206h-256zM341 444q0 -41 31 -72t72 -31 h580v205h-580q-41 0 -72 -31q-31 -30 -31 -71z" />
<glyph unicode="&#xe3;" d="M0 410q0 160 116 285q115 124 277 124h631v103q0 41 -31 71q-30 31 -71 31h-837v341h854q175 0 300 -126q126 -125 126 -300v-939h-972q-162 0 -277 123q-116 125 -116 287zM298 1451v204q146 137 256 137q57 0 128 -69q74 -68 128 -68q113 0 256 137v-205 q-139 -136 -256 -136q-54 0 -128 68q-71 68 -128 68q-114 0 -256 -136zM341 444q0 -41 31 -72t72 -31h580v205h-580q-41 0 -72 -31q-31 -30 -31 -71z" />
<glyph unicode="&#xe4;" d="M0 410q0 160 116 285q115 124 277 124h631v103q0 41 -31 71q-30 31 -71 31h-837v341h854q175 0 300 -126q126 -125 126 -300v-939h-972q-162 0 -277 123q-116 125 -116 287zM341 444q0 -41 31 -72t72 -31h580v205h-580q-41 0 -72 -31q-31 -30 -31 -71zM350 1451v222h222 v-222h-222zM794 1451v222h222v-222h-222z" />
<glyph unicode="&#xe5;" d="M0 410q0 160 116 285q115 124 277 124h631v103q0 41 -31 71q-30 31 -71 31h-837v341h854q175 0 300 -126q126 -125 126 -300v-939h-972q-162 0 -277 123q-116 125 -116 287zM341 444q0 -41 31 -72t72 -31h580v205h-580q-41 0 -72 -31q-31 -30 -31 -71zM486 1584v128 q0 54 39 92q40 39 94 39h128q55 0 93 -39q39 -38 39 -92v-128q0 -55 -39 -94q-38 -39 -93 -39h-128q-54 0 -94 39q-39 39 -39 94zM597 1592q0 -30 31 -30h111q29 0 29 30v111q0 29 -29 29h-111q-31 0 -31 -29v-111z" />
<glyph unicode="&#xe6;" horiz-adv-x="2048" d="M0 410q0 160 116 285q115 124 277 124h460v205h-768v341h1570q162 0 277 -124q116 -125 116 -285v-410h-853v-205h768v-341h-1570q-162 0 -277 123q-116 125 -116 287zM341 444q0 -41 31 -72t72 -31h409v205h-409q-41 0 -72 -31q-31 -30 -31 -71zM1195 819h512v103 q0 41 -31 71q-31 31 -72 31h-409v-205z" />
<glyph unicode="&#xe8;" d="M0 427v512q0 175 125 300q126 126 302 126h546q161 0 276 -124q116 -125 116 -285q0 -161 -116 -286q-115 -124 -276 -124h-632v-102q0 -41 31 -72t72 -31h836v-341h-853q-174 0 -302 125q-125 128 -125 302zM341 819h581q45 0 72.5 29t27.5 74t-27.5 73.5t-72.5 28.5 h-478q-41 0 -72 -31q-31 -30 -31 -71v-103zM469 1792h256l171 -341h-171z" />
<glyph unicode="&#xe9;" d="M0 427v512q0 175 125 300q126 126 302 126h546q161 0 276 -124q116 -125 116 -285q0 -161 -116 -286q-115 -124 -276 -124h-632v-102q0 -41 31 -72t72 -31h836v-341h-853q-174 0 -302 125q-125 128 -125 302zM341 819h581q45 0 72.5 29t27.5 74t-27.5 73.5t-72.5 28.5 h-478q-41 0 -72 -31q-31 -30 -31 -71v-103zM469 1451l171 341h256l-256 -341h-171z" />
<glyph unicode="&#xea;" d="M0 427v512q0 175 125 300q126 126 302 126h546q161 0 276 -124q116 -125 116 -285q0 -161 -116 -286q-115 -124 -276 -124h-632v-102q0 -41 31 -72t72 -31h836v-341h-853q-174 0 -302 125q-125 128 -125 302zM298 1451l256 341h256l256 -341h-256l-128 206l-128 -206 h-256zM341 819h581q45 0 72.5 29t27.5 74t-27.5 73.5t-72.5 28.5h-478q-41 0 -72 -31q-31 -30 -31 -71v-103z" />
<glyph unicode="&#xeb;" d="M0 427v512q0 175 125 300q126 126 302 126h546q161 0 276 -124q116 -125 116 -285q0 -161 -116 -286q-115 -124 -276 -124h-632v-102q0 -41 31 -72t72 -31h836v-341h-853q-174 0 -302 125q-125 128 -125 302zM341 819h581q45 0 72.5 29t27.5 74t-27.5 73.5t-72.5 28.5 h-478q-41 0 -72 -31q-31 -30 -31 -71v-103zM350 1451v222h222v-222h-222zM794 1451v222h222v-222h-222z" />
<glyph unicode="&#xec;" horiz-adv-x="478" d="M26 1792h256l171 -341h-171zM68 0v1365h342v-1365h-342z" />
<glyph unicode="&#xed;" horiz-adv-x="478" d="M26 1451l171 341h256l-256 -341h-171zM68 0v1365h342v-1365h-342z" />
<glyph unicode="&#xee;" horiz-adv-x="478" d="M-144 1451l256 341h256l256 -341h-256l-128 206l-128 -206h-256zM68 0v1365h342v-1365h-342z" />
<glyph unicode="&#xef;" horiz-adv-x="478" d="M-93 1451v222h222v-222h-222zM68 0v1365h342v-1365h-342zM351 1451v222h222v-222h-222z" />
<glyph unicode="&#xf1;" d="M0 0v1365h939q175 0 300 -126q126 -125 126 -300v-939h-341v905q0 49 -35 84t-84 35h-564v-1024h-341zM298 1451v204q146 137 256 137q57 0 128 -69q74 -68 128 -68q113 0 256 137v-205q-139 -136 -256 -136q-54 0 -128 68q-71 68 -128 68q-114 0 -256 -136z" />
<glyph unicode="&#xf2;" d="M0 427v512q0 175 125 300q126 126 302 126h512q175 0 300 -126q126 -125 126 -300v-512q0 -176 -126 -302q-125 -125 -300 -125h-512q-174 0 -302 125q-125 128 -125 302zM341 461q0 -50 35 -85t85 -35h444q49 0 84 35t35 85v444q0 49 -35 84t-84 35h-444q-50 0 -85 -35 t-35 -84v-444zM469 1792h256l171 -341h-171z" />
<glyph unicode="&#xf3;" d="M0 427v512q0 175 125 300q126 126 302 126h512q175 0 300 -126q126 -125 126 -300v-512q0 -176 -126 -302q-125 -125 -300 -125h-512q-174 0 -302 125q-125 128 -125 302zM341 461q0 -50 35 -85t85 -35h444q49 0 84 35t35 85v444q0 49 -35 84t-84 35h-444q-50 0 -85 -35 t-35 -84v-444zM469 1451l171 341h256l-256 -341h-171z" />
<glyph unicode="&#xf4;" d="M0 427v512q0 175 125 300q126 126 302 126h512q175 0 300 -126q126 -125 126 -300v-512q0 -176 -126 -302q-125 -125 -300 -125h-512q-174 0 -302 125q-125 128 -125 302zM298 1451l256 341h256l256 -341h-256l-128 206l-128 -206h-256zM341 461q0 -50 35 -85t85 -35h444 q49 0 84 35t35 85v444q0 49 -35 84t-84 35h-444q-50 0 -85 -35t-35 -84v-444z" />
<glyph unicode="&#xf5;" d="M0 427v512q0 175 125 300q126 126 302 126h512q175 0 300 -126q126 -125 126 -300v-512q0 -176 -126 -302q-125 -125 -300 -125h-512q-174 0 -302 125q-125 128 -125 302zM298 1451v204q146 137 256 137q57 0 128 -69q74 -68 128 -68q113 0 256 137v-205 q-139 -136 -256 -136q-54 0 -128 68q-71 68 -128 68q-114 0 -256 -136zM341 461q0 -50 35 -85t85 -35h444q49 0 84 35t35 85v444q0 49 -35 84t-84 35h-444q-50 0 -85 -35t-35 -84v-444z" />
<glyph unicode="&#xf6;" d="M0 427v512q0 175 125 300q126 126 302 126h512q175 0 300 -126q126 -125 126 -300v-512q0 -176 -126 -302q-125 -125 -300 -125h-512q-174 0 -302 125q-125 128 -125 302zM341 461q0 -50 35 -85t85 -35h444q49 0 84 35t35 85v444q0 49 -35 84t-84 35h-444q-50 0 -85 -35 t-35 -84v-444zM350 1451v222h222v-222h-222zM794 1451v222h222v-222h-222z" />
<glyph unicode="&#xf7;" horiz-adv-x="1024" d="M85 546v273h854v-273h-854zM384 154v256h256v-256h-256zM384 956v256h256v-256h-256z" />
<glyph unicode="&#xf8;" d="M-84 85l135 137q-51 94 -51 205v512q0 175 125 300q126 126 302 126h512q111 0 204 -51l137 137l171 -171l-137 -137q51 -93 51 -204v-512q0 -176 -126 -302q-125 -125 -300 -125h-512q-111 0 -205 51l-137 -135zM341 512l512 512h-392q-50 0 -85 -35t-35 -84v-393z M512 341h393q49 0 84 35t35 85v392z" />
<glyph unicode="&#xf9;" d="M0 427v938h341v-904q0 -50 35 -85t85 -35h444q49 0 84 35t35 85v904h341v-938q0 -176 -126 -302q-125 -125 -300 -125h-512q-174 0 -302 125q-125 128 -125 302zM469 1792h256l171 -341h-171z" />
<glyph unicode="&#xfa;" d="M0 427v938h341v-904q0 -50 35 -85t85 -35h444q49 0 84 35t35 85v904h341v-938q0 -176 -126 -302q-125 -125 -300 -125h-512q-174 0 -302 125q-125 128 -125 302zM469 1451l171 341h256l-256 -341h-171z" />
<glyph unicode="&#xfb;" d="M0 427v938h341v-904q0 -50 35 -85t85 -35h444q49 0 84 35t35 85v904h341v-938q0 -176 -126 -302q-125 -125 -300 -125h-512q-174 0 -302 125q-125 128 -125 302zM298 1451l256 341h256l256 -341h-256l-128 206l-128 -206h-256z" />
<glyph unicode="&#xfc;" d="M0 427v938h341v-904q0 -50 35 -85t85 -35h444q49 0 84 35t35 85v904h341v-938q0 -176 -126 -302q-125 -125 -300 -125h-512q-174 0 -302 125q-125 128 -125 302zM350 1451v222h222v-222h-222zM794 1451v222h222v-222h-222z" />
<glyph unicode="&#xfd;" horiz-adv-x="1195" d="M-84 1365h434l247 -512l248 512h435l-512 -853v-512h-341v512zM384 1451l171 341h256l-256 -341h-171z" />
<glyph unicode="&#xfe;" d="M0 0v1365h341v-222h598q175 0 300 -125q126 -125 126 -301v-68q0 -176 -126 -302q-125 -125 -300 -125h-598v-222h-341zM341 512h564q49 0 84 35t35 84v103q0 49 -35 84t-84 35h-564v-341z" />
<glyph unicode="&#xff;" horiz-adv-x="1195" d="M-84 1365h434l247 -512l248 512h435l-512 -853v-512h-341v512zM264 1451v222h222v-222h-222zM708 1451v222h222v-222h-222z" />
<glyph unicode="&#x152;" horiz-adv-x="1877" d="M0 427v512q0 175 125 300q126 126 302 126h1365v-341h-597v-205h512v-273h-512v-205h682v-341h-1450q-174 0 -302 125q-125 128 -125 302zM341 461q0 -50 35 -85t85 -35h392v683h-392q-50 0 -85 -35t-35 -84v-444z" />
<glyph unicode="&#x153;" horiz-adv-x="2048" d="M0 427v512q0 175 125 300q126 126 302 126h1228q162 0 277 -124q116 -125 116 -285v-410h-853v-205h768v-341h-1536q-174 0 -302 125q-125 128 -125 302zM341 461q0 -50 35 -85t85 -35h392v683h-392q-50 0 -85 -35t-35 -84v-444zM1195 819h512v103q0 41 -31 71 q-31 31 -72 31h-409v-205z" />
<glyph unicode="&#x178;" horiz-adv-x="1195" d="M-84 1365h434l247 -512l248 512h435l-512 -853v-512h-341v512zM264 1451v222h222v-222h-222zM708 1451v222h222v-222h-222z" />
<glyph unicode="&#x2c6;" horiz-adv-x="939" d="M85 1451l256 341h256l256 -341h-256l-128 206l-128 -206h-256z" />
<glyph unicode="&#x2dc;" horiz-adv-x="939" d="M85 1451v204q146 137 256 137q57 0 128 -69q74 -68 128 -68q113 0 256 137v-205q-139 -136 -256 -136q-54 0 -128 68q-71 68 -128 68q-114 0 -256 -136z" />
<glyph unicode="&#x2000;" horiz-adv-x="921" />
<glyph unicode="&#x2001;" horiz-adv-x="1843" />
<glyph unicode="&#x2002;" horiz-adv-x="921" />
<glyph unicode="&#x2003;" horiz-adv-x="1843" />
<glyph unicode="&#x2004;" horiz-adv-x="614" />
<glyph unicode="&#x2005;" horiz-adv-x="460" />
<glyph unicode="&#x2006;" horiz-adv-x="307" />
<glyph unicode="&#x2007;" horiz-adv-x="307" />
<glyph unicode="&#x2008;" horiz-adv-x="230" />
<glyph unicode="&#x2009;" horiz-adv-x="368" />
<glyph unicode="&#x200a;" horiz-adv-x="102" />
<glyph unicode="&#x2010;" horiz-adv-x="1024" d="M85 546v273h854v-273h-854z" />
<glyph unicode="&#x2011;" horiz-adv-x="1024" d="M85 546v273h854v-273h-854z" />
<glyph unicode="&#x2012;" horiz-adv-x="1024" d="M85 546v273h854v-273h-854z" />
<glyph unicode="&#x2013;" horiz-adv-x="683" d="M85 546v273h512v-273h-512z" />
<glyph unicode="&#x2014;" d="M85 546v273h1195v-273h-1195z" />
<glyph unicode="&#x2018;" horiz-adv-x="427" d="M85 1365h256l-68 -426h-119z" />
<glyph unicode="&#x2019;" horiz-adv-x="427" d="M85 1365h256l-68 -426h-119z" />
<glyph unicode="&#x201c;" horiz-adv-x="819" d="M85 1365h256l-68 -426h-119zM478 1365h256l-68 -426h-120z" />
<glyph unicode="&#x201d;" horiz-adv-x="819" d="M85 1365h256l-68 -426h-119zM478 1365h256l-68 -426h-120z" />
<glyph unicode="&#x201e;" horiz-adv-x="819" d="M85 256h256l-68 -425h-119zM478 256h256l-68 -425h-120z" />
<glyph unicode="&#x2022;" horiz-adv-x="853" d="M85 461v444q0 49 35 84t85 35h444q49 0 84 -35t35 -84v-444q0 -50 -35 -85t-84 -35h-444q-50 0 -85 35t-35 85z" />
<glyph unicode="&#x2026;" horiz-adv-x="1212" d="M85 0v256h256v-256h-256zM478 0v256h256v-256h-256zM870 0v256h256v-256h-256z" />
<glyph unicode="&#x202f;" horiz-adv-x="368" />
<glyph unicode="&#x2039;" horiz-adv-x="683" d="M85 683l256 256h256l-273 -256l273 -256h-256z" />
<glyph unicode="&#x203a;" horiz-adv-x="683" d="M85 427l273 256l-273 256h256l256 -256l-256 -256h-256z" />
<glyph unicode="&#x205f;" horiz-adv-x="460" />
<glyph unicode="&#x20ac;" horiz-adv-x="1394" d="M0 529l38 102h247v103h-208l37 102h171v103q0 175 125 300q126 126 302 126h682l-123 -341h-525q-50 0 -85 -35t-35 -84v-69h577l-37 -102h-540v-103h502l-36 -102h-466v-68q0 -50 35 -85t85 -35h525v-341h-559q-174 0 -302 125q-125 128 -125 302v102h-285z" />
<glyph unicode="&#x2122;" horiz-adv-x="1621" d="M85 1195v170h1238q87 0 150 -63t63 -150v-469h-171v452q0 60 -59 60h-111v-512h-171v512h-171v-512h-170v512h-214v-512h-170v512h-214z" />
<glyph unicode="&#x25fc;" d="M0 0v1365h1365v-1365h-1365z" />
</font>
</defs>
</svg>
